<svg width="100%" height="180" viewBox="0 0 900 180" xmlns="http://www.w3.org/2000/svg"><path fill="#fff" opacity="1.000000" stroke="none" d="M246.309509,325.000061 C246.319794,351.999695 246.331131,378.499359 246.338669,404.998993 C246.340744,412.296021 246.335541,412.298859 238.842728,412.294281 C228.009537,412.287659 217.175308,412.190399 206.343765,412.319916 C203.114731,412.358551 201.148987,411.206696 199.561447,408.376953 C170.948654,357.375305 142.077881,306.517365 113.692009,255.390106 C104.561699,238.945007 96.671280,221.811768 88.201973,204.999207 C86.937370,202.488815 85.608551,200.010773 83.274857,197.662613 C83.718239,204.307022 83.922920,210.977722 84.651718,217.590683 C86.512619,234.475998 87.964447,251.420242 88.103775,268.376404 C88.481735,314.372864 88.234070,360.374237 88.400230,406.373047 C88.416580,410.898193 87.133598,412.532837 82.465179,412.379211 C72.808960,412.061401 63.135178,412.286896 53.468655,412.269775 C46.823551,412.257996 46.776119,412.215637 46.775993,405.582062 C46.774899,347.249451 46.783272,288.916809 46.784637,230.584183 C46.785286,202.917862 46.772308,175.251526 46.775711,147.585205 C46.776527,140.969147 46.836365,140.900528 53.475567,140.879883 C64.308655,140.846222 75.145485,141.009323 85.973160,140.760178 C89.994850,140.667633 92.318916,142.057068 94.286209,145.567551 C115.218773,182.920044 136.066849,220.323166 157.403671,257.444794 C175.018372,288.090729 191.406754,319.351410 206.700958,351.203766 C207.375153,352.607849 207.731873,354.359192 209.628616,355.232513 C210.381241,347.250366 209.042023,339.528198 208.436523,331.801727 C206.693680,309.561951 204.640656,287.356384 204.725906,265.005585 C204.874008,226.173264 204.780701,187.340012 204.793396,148.507156 C204.795883,140.931076 204.805969,140.915619 212.610504,140.896606 C221.610321,140.874695 230.610260,140.868851 239.610077,140.884171 C246.299438,140.895569 246.312332,140.915543 246.312515,147.503311 C246.314178,206.502213 246.310944,265.501129 246.309509,325.000061 z"></path><path fill="#fff" opacity="1.000000" stroke="none" d="M345.171936,140.874451 C394.470398,140.875092 443.291260,140.873947 492.112152,140.881088 C499.242310,140.882126 499.256958,140.900391 499.260315,148.148026 C499.264191,156.479187 499.147247,164.811676 499.269592,173.140854 C499.320740,176.624405 497.896545,177.764435 494.495605,177.761795 C462.012390,177.736465 429.529083,177.825165 397.045807,177.880188 C395.546204,177.882721 394.037323,177.984573 392.548462,177.856903 C380.796814,176.849304 382.001495,177.578781 381.993408,188.549622 C381.979462,207.544647 382.084351,226.541031 381.865570,245.533707 C381.811188,250.256577 383.221680,251.869400 388.101898,251.834442 C416.759827,251.629120 445.419922,251.724274 474.079285,251.725967 C481.182037,251.726395 481.191101,251.739700 481.203308,259.035553 C481.216125,266.700256 481.225311,274.364960 481.205994,282.029633 C481.188446,289.002014 481.126495,289.084259 474.308533,289.087494 C445.982422,289.100922 417.656342,289.086487 389.330231,289.090515 C381.952423,289.091583 381.979523,289.105255 381.981293,296.621826 C381.986664,319.782471 381.977783,342.943146 381.956604,366.103790 C381.948517,374.946594 381.926483,374.941986 390.527466,374.941315 C425.685181,374.938538 460.842865,374.936829 496.000580,374.939575 C503.241913,374.940155 503.247833,374.949677 503.254517,382.110931 C503.261963,390.108856 503.027771,398.115906 503.344025,406.101318 C503.532593,410.862854 501.979462,412.421082 497.122345,412.398621 C458.466278,412.219666 419.809143,412.284851 381.152313,412.275360 C368.655518,412.272278 356.155975,412.120911 343.663361,412.347900 C339.293701,412.427277 337.831024,410.920258 337.835327,406.592072 C337.921417,320.114319 337.940186,233.636383 337.825989,147.158676 C337.819061,141.910599 339.906219,140.241592 345.171936,140.874451 z"></path><path fill="#fff" opacity="1.000000" stroke="none" d="M933.697510,167.438873 C960.757202,248.901108 987.670288,329.996460 1014.466736,410.740417 C1012.330994,412.643799 1010.592590,412.272186 1008.975891,412.275848 C997.147095,412.302612 985.316467,412.164642 973.490173,412.338104 C969.857544,412.391327 968.191223,411.101227 967.179443,407.596741 C960.763428,385.373840 954.053284,363.235718 947.667542,341.004364 C946.471130,336.839111 944.675415,335.099213 940.101868,335.134583 C912.780334,335.346130 885.455933,335.335480 858.133789,335.173279 C853.898804,335.148132 852.095459,336.463684 850.894287,340.626740 C844.482239,362.849396 837.645996,384.949310 831.109070,407.136627 C830.000305,410.899902 828.251526,412.521271 824.101379,412.409973 C813.279724,412.119812 802.445312,412.321686 791.616150,412.282684 C789.820007,412.276215 787.931702,412.633484 786.316956,411.493225 C785.229248,409.571075 786.325256,407.876740 786.881042,406.199646 C810.283936,335.584198 833.714783,264.977997 857.145813,194.371933 C862.492920,178.259369 867.951172,162.182617 873.134705,146.017715 C874.353760,142.216003 876.256958,140.744293 880.289856,140.806473 C893.614929,141.011932 906.946289,140.967514 920.272949,140.818893 C923.684204,140.780853 925.375244,142.031738 926.362000,145.274811 C928.588623,152.592178 931.134827,159.812286 933.697510,167.438873 M925.017639,266.358154 C915.823059,236.883591 907.886780,207.033524 898.781433,177.385391 C887.483337,218.453018 875.677917,259.085175 863.075195,300.179016 C887.317017,300.179016 910.750122,300.179016 934.922424,300.179016 C931.592896,288.718689 928.453125,277.911743 925.017639,266.358154 z"></path><path fill="#fff" opacity="1.000000" stroke="none" d="M638.569824,329.473389 C625.829651,356.303833 611.682129,381.998352 598.603760,408.235443 C597.538086,410.373291 596.484558,412.337372 593.555237,412.315308 C580.058472,412.213593 566.560974,412.208130 553.063904,412.138031 C552.605164,412.135651 552.148193,411.812256 551.582825,411.597656 C551.188904,408.470367 553.281799,406.272675 554.599365,403.898804 C576.105652,365.151794 597.687439,326.446777 619.249573,287.730774 C620.222412,285.984039 620.911011,284.005432 622.172791,282.505615 C628.281067,275.244873 626.440735,268.883148 621.994324,261.115204 C600.643005,223.813721 579.969971,186.124008 559.064270,148.567581 C557.944092,146.555267 556.899109,144.501053 555.903259,142.624924 C557.438354,140.353729 559.433350,140.920242 561.164185,140.912735 C573.496826,140.859329 585.831482,140.995117 598.161743,140.815506 C601.999695,140.759598 604.229065,142.107483 605.971191,145.564026 C621.865906,177.100632 639.061340,207.969772 654.371765,239.808502 C655.075134,241.271286 656.009583,242.623001 657.026184,244.348511 C659.435425,242.456924 659.933167,239.943604 660.828064,237.771698 C673.988953,205.830444 690.945740,175.745941 706.212036,144.835571 C707.279297,142.674667 708.507385,140.857941 711.381165,140.873001 C724.379761,140.941101 737.378845,140.902954 750.377625,140.944519 C751.151367,140.946991 751.923889,141.310776 752.696533,141.506317 C753.331482,144.344788 751.486328,146.094391 750.419922,148.047379 C728.304626,188.548965 706.197083,229.055038 683.926575,269.471252 C681.908264,273.134155 681.955627,275.832153 684.042725,279.480225 C708.281555,321.847626 732.334900,364.321106 756.435913,406.767365 C757.239807,408.183258 758.376343,409.483154 758.201599,411.259247 C756.613647,412.941528 754.670593,412.257324 752.947266,412.265808 C740.947998,412.324738 728.940491,412.040741 716.952515,412.411011 C712.179016,412.558472 709.803162,410.716980 707.730896,406.708466 C690.287903,372.966736 672.680298,339.310059 655.112305,305.632935 C654.435303,304.335114 653.659241,303.088989 652.247498,300.632294 C647.452271,310.748016 643.093994,319.942017 638.569824,329.473389 z"></path></svg>