<svg version="1.1" id="Layer_1" xmlns="http://www.w3.org/2000/svg" xmlns:xlink="http://www.w3.org/1999/xlink" x="0px" y="0px"
	 width="100%" viewBox="0 0 1024 1024" enable-background="new 0 0 1024 1024" xml:space="preserve">
<path fill="#000000" opacity="1.000000" stroke="none" 
	d="
M336.663452,549.781982 
	C353.773376,499.619049 370.764709,449.829346 387.770020,400.044403 
	C396.326477,374.994446 404.944733,349.965454 413.426697,324.890320 
	C414.356018,322.142914 415.860901,320.847198 418.680511,320.425415 
	C426.086578,319.317505 433.471008,318.055603 440.845734,316.751404 
	C445.041748,316.009369 447.040894,317.648529 448.445282,321.732483 
	C464.632538,368.804230 480.929260,415.838806 497.354126,462.828278 
	C513.229797,508.246582 529.385315,553.567200 545.192993,599.008972 
	C548.717346,609.140137 555.208313,614.630920 565.847412,615.769653 
	C572.795837,616.513306 575.519531,621.551392 573.114075,628.113220 
	C572.276001,630.399475 570.411926,630.343872 568.588684,630.273987 
	C561.768250,630.012573 554.953491,629.581177 548.131653,629.380005 
	C520.802795,628.574219 493.486084,629.025269 466.178192,630.280518 
	C462.981445,630.427429 459.771088,630.831848 459.615692,625.860474 
	C459.383484,618.431335 459.824951,617.471741 465.428009,616.648743 
	C469.704346,616.020630 474.009125,615.437927 478.202057,614.424561 
	C484.784088,612.833862 487.025360,608.878235 484.938049,602.504211 
	C476.908722,577.984741 468.718689,553.517883 460.723969,528.987244 
	C459.576996,525.467957 457.791046,523.852173 453.971924,523.869812 
	C425.817657,524.000183 397.662659,524.031128 369.508118,523.973755 
	C366.039001,523.966675 364.526367,525.484497 363.526154,528.614746 
	C356.685638,550.022583 349.675354,571.376221 342.815796,592.778076 
	C341.805328,595.930725 341.092926,599.215271 340.611145,602.492981 
	C339.765259,608.248108 342.215912,612.170959 347.941437,613.817444 
	C352.401428,615.100037 357.028046,615.806641 361.585175,616.747070 
	C366.411957,617.743164 367.073181,619.441223 366.405029,626.806396 
	C366.022614,631.021973 363.137115,630.454651 360.596771,630.247864 
	C343.962372,628.893982 327.306030,629.015991 310.647888,629.390320 
	C305.493622,629.506165 300.344452,629.936523 295.198456,630.300415 
	C292.058563,630.522583 289.702545,629.593872 289.936127,626.064331 
	C290.164429,622.614319 287.789886,617.929321 293.501709,616.557922 
	C296.733124,615.782043 300.013916,615.156433 303.305023,614.695862 
	C311.253021,613.583313 316.253082,609.032349 318.817810,601.627563 
	C324.756866,584.480530 330.643036,567.315125 336.663452,549.781982 
M452.008850,506.062653 
	C453.014496,503.093933 451.373596,500.554565 450.516998,497.968567 
	C440.157410,466.694214 429.708557,435.449371 419.280029,404.197845 
	C416.874329,396.988617 414.457642,389.783051 412.045990,382.575806 
	C411.665192,382.558136 411.284393,382.540436 410.903564,382.522766 
	C397.458588,423.681610 384.013580,464.840454 370.280365,506.881622 
	C380.001312,506.881622 388.459442,506.950470 396.916077,506.867432 
	C415.067535,506.689270 433.224670,507.365387 452.008850,506.062653 
z"/>
<path fill="#000000" opacity="1.000000" stroke="none" 
	d="
M657.804321,318.636108 
	C672.577332,317.837830 686.873230,317.055817 701.167175,316.240845 
	C704.341187,316.059906 707.168640,315.886597 707.404114,320.434601 
	C707.790588,327.896790 707.444214,328.728821 702.171082,329.316711 
	C697.374451,329.851532 692.645630,330.650787 688.007568,332.114746 
	C681.022705,334.319366 677.759766,339.280609 677.337158,346.214569 
	C677.003174,351.694092 677.126099,357.204254 677.124207,362.700836 
	C677.098938,436.345184 677.082825,509.989563 677.082397,583.633911 
	C677.082336,588.631165 677.091309,593.634949 677.332092,598.624268 
	C677.786194,608.033020 681.517395,612.611572 690.639526,614.812988 
	C694.508484,615.746765 698.497559,616.181824 702.431396,616.847290 
	C707.276672,617.666870 708.416687,619.817871 708.005859,626.060486 
	C707.713135,630.507935 704.823120,630.461975 701.681946,630.308655 
	C674.216492,628.968811 646.738159,628.629211 619.250122,629.339478 
	C611.262512,629.545898 603.276611,629.905212 595.298340,630.347229 
	C592.055481,630.526978 590.027832,629.563782 590.162781,626.040833 
	C590.300720,622.437805 588.751343,617.915283 594.455505,616.947327 
	C598.711792,616.225159 603.049255,615.880432 607.240845,614.898865 
	C616.135071,612.816040 620.143860,607.839661 620.662354,598.709595 
	C620.822815,595.883850 620.837280,593.047119 620.837769,590.215393 
	C620.850220,511.905670 620.857910,433.595947 620.851746,355.286224 
	C620.850220,336.013550 616.520874,331.269775 597.314392,329.349213 
	C591.179871,328.735779 588.410706,324.047943 590.883606,318.290131 
	C592.095886,315.467651 594.670837,316.127472 596.947449,316.271088 
	C617.055237,317.539612 637.156921,318.950226 657.804321,318.636108 
z"/>
</svg>